<?xml version="1.0" encoding="utf-8"?>
<!-- Generator: Adobe Illustrator 28.3.0, SVG Export Plug-In . SVG Version: 6.00 Build 0)  -->
<svg version="1.1" id="_デザイン" xmlns="http://www.w3.org/2000/svg" xmlns:xlink="http://www.w3.org/1999/xlink" x="0px"
	 y="0px" viewBox="0 0 866.6 382.9" style="enable-background:new 0 0 866.6 382.9;" xml:space="preserve">
<style type="text/css">
	.st0{fill:#FFFFFF;}
</style>
<path class="st0" d="M80,158.4c0.2,1.6,0.6,4.1,1.1,7.5c4.2-2,7.9-3.2,11.1-3.8c0.7-0.1,1.4,0,2,0.5c0.6,0.4,1,1,1.1,1.7
	c0.1,0.7,0,1.4-0.4,2c-0.4,0.6-1,1-1.7,1.1c-3.2,0.5-6.8,1.9-10.9,4c0.2,1.3,0.7,3.7,1.5,7.3c0.1,0.3,0.1,0.5,0.2,0.8
	c0.1,0.8,0.3,2,0.6,3.5c0.3,1.5,0.5,2.7,0.7,3.4c6.7-3.8,13.5-5.9,20.3-6.4c6.6-0.5,11.4,1,14.5,4.6c2.6,3,3.7,7.2,3.1,12.6
	c-0.4,4.1-1.6,8.6-3.7,13.3c-2.1,4.7-12.8,23-15.5,26.2c-1.2,1.4-2.5,1.5-3.9,0.3c-0.5-0.4-0.8-1-0.9-1.8c-0.1-0.8,0.1-1.4,0.6-2
	c2.4-2.7,12.9-20.6,14.7-24.8c1.8-4.2,2.9-8.1,3.3-11.6c0.3-3.9-0.4-6.8-1.9-8.6c-1.9-2.1-5.1-3-9.8-2.6c-6.6,0.4-13.1,2.6-19.7,6.5
	c0.2,0.6,0.4,1.5,0.6,2.6c1,6.2,1.7,11.4,2,15.5c0.6,8.4-0.7,14-4,16.8c-1.6,1.5-3.6,2.1-6,1.9c-1.9-0.3-3.8-1.1-5.6-2.5
	c-3.7-2.9-6.1-6.7-7.2-11.4c-1.3-5.7-0.3-10.8,3.2-15.2c2.8-3.7,6.5-7.2,11-10.3c-0.6-2.8-1.2-5.7-1.8-8.7c-0.1-0.2-0.2-0.4-0.2-0.6
	c-0.1-0.7-0.3-1.6-0.6-3c-0.3-1.3-0.5-2.3-0.6-2.8c-0.9,0.5-2.2,1.3-3.8,2.3c-1.2,0.7-2.8,1.6-4.8,3c-2.7,1.6-4.2,2.5-4.6,2.7
	c-0.6,0.4-1.3,0.5-2,0.3c-0.7-0.2-1.3-0.7-1.7-1.4c-0.4-0.6-0.5-1.3-0.3-2c0.2-0.7,0.7-1.3,1.4-1.7c1.1-0.6,2.6-1.4,4.3-2.5
	c0.3-0.2,1.9-1.2,4.8-3c1.8-1.1,3.7-2.3,5.6-3.4c-0.6-3.2-1.1-6.4-1.6-9.5c-0.1-0.7,0-1.4,0.5-2c0.5-0.6,1.1-0.9,1.8-1
	c0.7-0.1,1.4,0,2,0.5C79.5,157.1,79.8,157.7,80,158.4L80,158.4z M81.5,195.3c-3.2,2.5-5.8,5.1-7.9,7.8c-2.4,3-3.1,6.6-2.2,10.7
	c0.8,3.6,2.6,6.4,5.2,8.3c2,1.6,3.6,1.9,4.7,0.8c0.7-0.6,1.3-1.7,1.8-3.5c0.5-2.5,0.6-5.4,0.3-8.8c-0.3-3.9-0.9-9-2-15.1L81.5,195.3
	L81.5,195.3z M106.3,154l3.3,5.1c4.4,6.7,7.6,11.7,9.5,15c0.1,0.2,0.3,0.5,0.6,0.9c0.3,0.4,0.4,0.7,0.6,0.9c0.8,1.6,0.4,2.9-1.1,3.8
	c-1.7,0.8-2.9,0.4-3.7-1.1c-0.1-0.2-0.3-0.5-0.6-0.9c-0.3-0.4-0.4-0.7-0.6-0.9c-2.7-4.7-5.9-9.6-9.4-14.7c-1.7-2.6-2.8-4.4-3.3-5.1
	c-0.9-1.6-0.7-2.9,0.8-3.9c0.6-0.4,1.3-0.5,2-0.3C105.3,153,105.9,153.3,106.3,154L106.3,154z"/>
<path class="st0" d="M194.4,157.5l-0.1-0.3c0-0.2,0-0.4,0-0.5c0-1.1,0-2,0-2.6c0.1-1.7,0.3-3,0.7-3.8c0.3-0.9,0.8-1.6,1.6-2.1
	c0.9-0.6,2-0.8,3.2-0.5c0.3,0.1,0.5,0.2,0.7,0.2c0.2,0,0.3,0,0.4,0.1c0,0.1,0.2,0.4,0.6,1c0,0.1,0,0.1,0.1,0.2
	c0,0.1,0.1,0.1,0.1,0.2c0,0.1,0.1,0.3,0.3,0.5c0.2,0.3,0.3,0.5,0.5,0.7c1.1,2.1,1.9,3.4,2.3,4c2.4,4.6,4.8,8.7,7,12.3
	c0.3,0.5,0.8,1.3,1.4,2.4c0.6,1,1,1.6,1.1,1.9c4.2,6.8,7,10.8,8.5,12c0.6,0.4,0.9,1,1,1.8c0.1,0.8-0.2,1.4-0.7,2
	c-1.1,1.4-2.4,1.5-3.8,0.4c-2-1.7-5.3-6.2-9.7-13.4c-0.1-0.2-0.5-0.8-1.1-1.9s-1.1-1.9-1.4-2.5c-3.7-6.3-6.1-10.4-7-12.3
	c-0.1-0.1-0.1-0.2-0.2-0.3c0,0.1,0,0.2,0,0.3c0,0.2,0,0.3-0.1,0.5l0,0.2c-0.1,3.2-1.2,8.2-3.1,15c-1.8,6.4-4.2,13.1-7.4,20.1
	c-3.6,7.7-7.3,13.4-10.9,17.1c-2.2,2.3-4.5,3.9-6.9,4.8c-2.8,1.1-5.5,1.1-8.2,0.1c-4.9-1.8-7.9-6-9-12.6c-0.8-4.9-0.3-11.2,1.3-18.8
	c1.7-8,4.3-16,8-23.7c-0.1,0-0.2,0.1-0.3,0.2c-3.3,2.6-5.4,4.2-6.4,4.9c-2.6,1.8-5,3.2-7.1,4.1c-0.7,0.3-1.4,0.3-2.1,0
	c-0.7-0.3-1.2-0.7-1.5-1.5c-0.2-0.4-0.1-0.9,0.1-1.5c0.2-0.6,0.5-1.1,0.8-1.5l0.5-0.5c2.2-1,4.2-2.1,6.2-3.5
	c2.8-2.1,4.8-3.7,6.1-4.8c0.1-0.1,0.2-0.2,0.3-0.2l0.1-0.1c0.1-0.1,0.1-0.1,0.2-0.2c3.1-2.5,5.2-4.1,6.4-4.8c0.1,0,0.2-0.1,0.3-0.2
	c0.1-0.1,0.3-0.3,0.4-0.3c0.6-0.5,1.1-0.9,1.6-1.2c0.8-0.4,1.7-0.7,2.7-0.8c0.6,0.1,1,0.2,1.3,0.3c0.6,0.3,1.1,0.8,1.5,1.6
	c0.1,0.4,0.2,0.9,0.2,1.7c-0.1,0.5-0.3,0.8-0.3,0.9l-1.1,1.5l-0.2,0.3c0,0.1-0.1,0.2-0.2,0.3c-0.1,0.1-0.2,0.2-0.3,0.3
	c-0.1,0.2-0.2,0.3-0.3,0.3c-1.6,2.1-3.6,6.1-6,11.9c-2.5,6.3-4.4,12.3-5.6,17.9c-1.4,6.8-1.7,12.4-1.1,16.8c0.7,4.4,2.6,7.2,5.5,8.2
	c2.9,1.1,6-0.1,9.3-3.6c3.4-3.3,6.6-8.5,9.8-15.6c2.6-5.6,5-12,7.2-19.3c1.8-6.2,2.7-10.8,2.9-13.7v-0.1
	C194.4,157.7,194.4,157.6,194.4,157.5L194.4,157.5z"/>
<path class="st0" d="M289.9,141.6c-2.7,1.3-6.5,4.7-11.4,10.3c-5.2,5.9-9.6,11.9-13,18c-3.8,6.7-5.6,12-5.3,16
	c0.2,1.8,0.7,3.1,1.8,3.9c1.4,1.2,3.5,1.8,6.3,1.9c4.2,0.2,8.5-0.5,12.9-2c3.1-1.1,7-3,11.8-5.7c0.1-0.1,0.4-0.2,0.7-0.4
	s0.7-0.4,1.1-0.6c3.6-2,6-3.3,7.2-3.9c2.9-1.4,7.4-6.5,9.7-7.3c1.7-0.5,3.1-0.7,3.8,1c0.3,0.7,0.1,2.1-0.3,2.8
	c-0.3,0.7-1.2,0.9-1.7,1.4c-1.3,1.2-6,5.5-9,7c-2.5,1.3-4.9,2.5-7.1,3.8c-1,0.6-1.7,0.9-1.9,1c-5.2,3-9.5,5-12.7,6.1
	c-5,1.7-9.9,2.5-14.9,2.4c-8.4-0.3-12.8-4-13.3-10.9c-0.4-5.1,1.6-11.4,6-19.1c0.7-1.3,1.9-3.2,3.6-5.7c-0.1,0-0.2,0-0.3-0.1
	c-0.2,0-0.3-0.1-0.3-0.1c-2.9-0.8-6.5-2.9-10.8-6.4c-2.7-2.3-5.6-5-8.5-8.1c-0.5-0.5-0.8-1.2-0.8-2s0.3-1.4,0.8-1.9
	c1.2-1.3,2.5-1.3,3.8,0c4.2,4.1,6.9,6.7,8.2,7.8c3.6,3,6.5,4.8,8.6,5.2c0.9,0.3,1.5,0.9,1.9,1.7c3.5-4.9,7.1-9.3,11-13.3
	c3.9-4,7.1-6.6,9.6-7.9c0.7-0.3,1.4-0.4,2.1-0.1c0.7,0.3,1.3,0.7,1.6,1.4c0.3,0.7,0.4,1.4,0.1,2.1
	C291.1,140.8,290.6,141.3,289.9,141.6L289.9,141.6z"/>
<path class="st0" d="M341.9,122.3c0,5.9,1,12.9,2.8,21c1.1,4.6,2.2,7.5,3.1,8.9c0.7-0.9,1.4-2.8,2.1-5.6v-0.1c0-0.1,0.1-0.2,0.1-0.2
	c0.1,0,0.1-0.1,0.1-0.1V146c0.7-2.3,1.2-4,1.6-5.1c0.9-1.6,2.1-2.1,3.6-1.3c1.7,0.6,2.1,1.8,1.4,3.6c-0.4,1.1-0.9,2.5-1.3,4.2v0.1
	c0,0.1-0.1,0.2-0.1,0.2c-0.1,0.1-0.1,0.2-0.1,0.2c-0.3,1.3-0.7,2.6-1.2,4.1c-0.8,1.8-1.5,3.2-2.4,4.1c-1.4,1.8-3,2.5-5,2
	c-1.4-0.4-2.6-1.5-3.6-3.1c-1.4-2.5-2.6-6-3.6-10.5c-2.1-8.6-3.2-16.1-3.1-22.3c0.1-1.8,1.1-2.7,2.8-2.6c0.8,0,1.4,0.3,1.9,0.8
	C341.6,120.9,341.9,121.5,341.9,122.3L341.9,122.3z M373.7,114.9c3.8,10.3,5.8,19.3,6,27c0.4,9.2-1.4,18.5-5.5,27.8
	c-0.8,2-1.5,3.8-2.2,5.2c-0.8,1.9-1.6,3.4-2.4,4.6c-1.1,1.8-12.4,16.1-13.6,17c-1.5,1-2.8,0.8-3.8-0.6c-0.4-0.6-0.6-1.3-0.5-2.1
	c0.1-0.8,0.4-1.4,1.1-1.8c1.1-0.8,12.7-16,14.2-19.4c1.3-3.2,2.1-5,2.2-5.2c3.7-8.4,5.4-16.9,5.1-25.4c-0.3-7.4-2.3-15.9-5.7-25.4
	c-0.7-1.6-0.1-2.8,1.6-3.5C371.8,112.7,373,113.3,373.7,114.9L373.7,114.9z"/>
<path class="st0" d="M397.7,125.2c2.4-1.1,12.6-4.3,15.8-5.8l1.9-0.9c1.1-0.6,1.7-0.9,1.9-0.9c0.3-0.2,1.6-0.8,3.8-1.8
	c0.3-0.1,1.2-0.6,2.8-1.3c1.6-0.8,2.8-1.3,3.7-1.7c-1.3-1.3-2.7-2.4-4.2-3.4c-0.7-0.4-1.1-1-1.3-1.7c-0.2-0.7,0-1.4,0.4-2.1
	c0.9-1.5,2.2-1.8,3.7-0.9c2.2,1.3,4.4,3.2,6.6,5.7c6.8-2.9,11.2-4.7,13.4-5.5c0.7-0.3,1.4-0.2,2.1,0.1c0.7,0.3,1.2,0.9,1.5,1.6
	c0.3,0.7,0.3,1.4,0,2.1c-0.3,0.7-0.8,1.1-1.5,1.3c-5.1,2.1-9,3.7-11.8,4.8c0.5,0.8,1.4,2.1,2.8,3.9c0.3,0.2,0.4,0.4,0.4,0.6
	c3.2,4.4,5.7,7.5,7.4,9.2l0.3,0.4c0.1,0.1,0.3,0.3,0.7,0.7c0.9,0.9,1.6,1.5,2,1.9c0.2,0.3,0.5,0.7,0.9,1.1c0.4,0.5,0.7,0.8,0.9,1
	c0.3,0.3,0.5,0.6,0.7,1c0.1,0.1,0.3,0.3,0.5,0.8c0.1,0.5,0.1,0.9,0.1,1.2c-0.1,0.9-0.5,1.5-1.4,2c-0.7,0.4-1.5,0.7-2.4,0.7
	c-0.3,0.1-0.9,0-1.7-0.1l-0.2,0c-0.3,0-0.6,0-0.8,0c-0.7,0.1-1.4,0-2-0.5c-0.6-0.5-1-1.1-1.1-1.8c-0.2-1.3,0.3-2.3,1.5-2.8
	c-0.5-0.6-0.9-0.9-0.9-1c-0.4-0.4-0.6-0.6-0.7-0.7c-0.1,0-0.1,0-0.1-0.1s-0.1-0.1-0.1-0.2c-2-1.9-4.7-5.3-8-10l-0.4-0.6
	c-0.6-0.7-1.3-1.6-2-2.7c-0.8-1-1.3-1.7-1.5-2.1c-0.9,0.4-2.3,1-4.2,1.8c-1.9,0.8-3.1,1.4-3.8,1.8c-1.5,0.7-2.8,1.3-3.8,1.8
	c-0.2,0.1-0.5,0.3-1,0.4c-0.5,0.2-0.8,0.3-0.9,0.4c-0.9,0.5-1.5,0.8-1.9,0.9c-3.1,1.5-13.4,4.8-15.8,5.8c-0.7,0.3-1.4,0.4-2.1,0.1
	c-0.7-0.3-1.2-0.7-1.5-1.5c-0.3-0.7-0.4-1.4-0.1-2.1C396.5,126,397,125.5,397.7,125.2L397.7,125.2z M413.6,152.3
	c2.2,0.8,5.3,1.9,9.2,3.4c1,0.2,2.6,0.8,4.7,1.8c7.7,2.9,19,5.7,24.2,6.9c0.7,0.2,1.3,0.6,1.7,1.2c0.4,0.6,0.5,1.3,0.3,2
	c-0.4,1.8-1.5,2.5-3.3,2.1c-4.9-1.1-16.5-3.9-24.9-7.1c-0.3-0.1-1-0.4-2.4-0.9c-1.3-0.5-2.1-0.8-2.4-0.9c-4-1.6-7-2.7-9-3.3
	c-1.7-0.6-2.3-1.8-1.7-3.4C410.8,152.2,412,151.7,413.6,152.3L413.6,152.3z"/>
<path class="st0" d="M486.4,128.1c4.3-4.1,11.7-8.8,22.3-14c0.5-0.2,1.2-0.5,2-0.9c0-0.1-0.3-1.1-0.7-2.9s-0.8-3.1-1.1-4.1
	c-0.7-3-1.5-5.7-2.4-8.2c-0.3,0.1-0.9,0.3-1.6,0.6c-0.7,0.2-1.3,0.4-1.6,0.6c-8.9,3-24.5,12.1-29,15.9c-0.6,0.5-1.3,0.7-2,0.6
	c-0.8-0.1-1.4-0.4-1.8-1c-1.1-1.4-1.1-2.7,0.3-3.9c5.1-4.3,21.2-13.7,30.7-16.9c0.4-0.1,0.9-0.2,1.6-0.5c0.7-0.3,1.2-0.4,1.6-0.5
	c0-0.1-0.5-1.3-1.4-3.4c-0.3-0.7-0.3-1.4,0-2.1c0.3-0.7,0.7-1.2,1.5-1.5c0.7-0.3,1.4-0.3,2.1,0c0.7,0.3,1.2,0.7,1.5,1.5
	c0.1,0.3,0.7,1.6,1.6,4c0.5-0.2,1.4-0.4,2.7-0.8c0.1,0,0.7-0.2,1.7-0.5c1-0.3,1.6-0.4,1.8-0.5c0.7-0.2,1.2-0.4,1.7-0.5
	c1.1-0.3,2-0.6,2.6-0.7c2-0.5,3.6-0.6,4.8-0.3c0.5,0.1,1.1,0.4,1.6,0.8c0.7,0.6,1.1,1.4,1.2,2.3c0.2,1.1-0.2,2.2-1.2,3.4
	c-0.5,0.6-1.1,0.9-1.9,1c-0.8,0.1-1.4-0.2-2-0.7c-0.3-0.2-0.5-0.6-0.8-1.1l-0.5,0.1c-0.5,0.1-1.3,0.3-2.3,0.6
	c-0.5,0.1-0.9,0.2-1.1,0.3c-0.4,0.1-0.6,0.1-0.6,0.2c-1.3,0.2-2.5,0.5-3.6,0.9c-1.1,0.3-1.9,0.6-2.4,0.6c0.5,1.8,1.3,4.6,2.4,8.3
	c0.8,2.7,1.3,4.8,1.6,6.2c7.7-3.2,13.4-4.9,17.2-4.8c0.7-0.1,1.4,0.2,1.9,0.8c0.5,0.5,0.8,1.2,0.8,2c0,0.8-0.3,1.5-0.8,2
	c-0.5,0.5-1.2,0.7-1.9,0.7c-3.4,0.1-8.7,1.7-15.9,4.8c1,5,1.7,9.4,2.1,13.1c0,0.3,0,0.7,0,1.3c0.1,0.6,0.1,1,0.2,1.3
	c3.5-0.7,6.8-1.1,10-1c6.8-0.2,11.6,1,14.3,3.4c0.5,0.4,0.8,1.1,0.8,1.8c0,0.8-0.2,1.5-0.7,2c-0.5,0.5-1.1,0.8-1.9,0.9
	c-0.7,0.1-1.4-0.2-1.9-0.7c-1.5-1.4-4.9-2.1-10.4-2c-3.3,0.1-6.6,0.5-9.9,1.1c0.1,5.7-0.7,10.3-2.3,13.8c-3,6.9-8.5,9.4-16.6,7.5
	c-0.3-0.1-0.6-0.2-0.8-0.2c-0.9-0.2-1.4-0.3-1.7-0.3c-1.3-0.3-2.5-0.7-3.6-1.2c-1.5-0.7-2.6-1.7-3.3-2.9c-1.4-2.3-1.6-4.7-0.9-7.2
	c0.8-2.1,2.3-4,4.5-5.7c3.5-2.9,8.8-5.4,15.8-7.4c0.4-0.1,0.9-0.2,1.7-0.4c0.8-0.2,1.3-0.4,1.7-0.5c0-0.3,0-0.8-0.1-1.5
	c-0.1-0.7-0.2-1.2-0.2-1.6c-0.3-3.2-0.9-7-1.8-11.5c-0.3,0.2-0.5,0.3-0.7,0.3c-10,5-17,9.3-20.9,13c-1.4,1.3-2.6,1.3-3.8,0
	C485.1,130.6,485.1,129.3,486.4,128.1L486.4,128.1z M514.1,138.7c-0.4,0.1-1.1,0.3-1.9,0.6c-6.2,1.7-10.8,3.9-14,6.4
	c-1.4,1.1-2.3,2.1-2.7,3.2c-0.2,1-0.1,1.9,0.4,2.6c0.3,0.6,1.4,1.2,3.3,1.6l1.7,0.3c0.3,0.2,0.6,0.3,0.9,0.3c2.7,0.7,5,0.6,6.7-0.3
	c1.5-0.7,2.7-2.1,3.6-4.1C513.3,146.6,514,143.1,514.1,138.7L514.1,138.7z"/>
<path class="st0" d="M388.1,248.4l2.1-1.7c3.1-2.5,6.8-4.9,11.1-7.3c3-1.6,6.9-3.5,11.7-5.6c1.8-0.9,3.8-1.8,6-2.6
	c0.1-0.1,0.4-0.3,0.9-0.5s0.9-0.4,1.4-0.7c0.4-0.2,0.7-0.3,0.8-0.4c1.4-0.7,2.6-1.2,3.6-1.6c1.9-0.5,3.4-0.9,4.6-1
	c1.9-0.1,3.6,0.3,5,1.3c2.1,1.5,4,6,5.7,13.7c1.6,7.3,2.5,14.6,2.6,21.8c0.1,8.7-0.9,15-3.2,18.9c-1.5,2.8-3.6,4.4-6.5,4.7
	c-2.7,0.2-5.7-0.8-8.9-3.1c-0.7-0.4-1.1-1-1.2-1.7c-0.1-0.7,0.1-1.4,0.6-2c0.4-0.7,1-1.1,1.7-1.2c0.7-0.1,1.4,0.1,2,0.6
	c2.2,1.4,3.9,2.1,5.2,2.1c0.9-0.2,1.6-0.8,2.3-2c1.8-2.9,2.6-8.3,2.5-16c-0.2-7.1-1.1-14-2.6-20.8c-0.5-2.5-1.2-5-2.1-7.7
	c-0.4-0.9-0.7-1.6-1-2.2c-0.2-0.3-0.3-0.4-0.3-0.5v-0.1c-0.7-0.5-2.2-0.3-4.6,0.5c-0.4,0.2-1.5,0.6-3.1,1.3c-0.1,0-0.6,0.3-1.6,0.8
	c-1,0.5-1.5,0.8-1.7,0.8c-0.4,0.2-1.5,0.6-3.1,1.3c-1.6,0.7-2.6,1.1-2.8,1.3c-4.8,2.1-8.6,3.9-11.4,5.5c-3.4,1.8-6.9,4-10.4,6.7
	c-1.7,1.4-3.1,2.7-4.2,3.8c0.2,0.9,1,4.9,2.5,11.7c0.6,2.6,1,4.7,1.4,6.2c2.6,11.2,4.4,19.8,5.4,25.9c0.1,0.7,1.1,8.5,0.9,9.2
	c-0.2,0.7-1,1-1.7,1.1c-0.7,0.1-1.7-0.1-2-0.8c-1.5-3.2-2.3-7.9-2.5-8.6c-0.9-5.2-2.8-14.5-5.3-25.6c-0.3-1.5-0.8-3.6-1.4-6.2
	c-1.8-8.1-3.1-14.7-4-19.8c-0.1-0.7,0-1.4,0.4-2c0.4-0.6,1-1,1.8-1.2c0.7-0.1,1.4,0,2,0.5c0.6,0.5,1,1.1,1.1,1.8L388.1,248.4
	L388.1,248.4z M409.5,213.3c-0.9,2-2.9,6.3-6.2,12.8c-0.1,0.1-0.1,0.2-0.1,0.2c-3.6,7-6,12-7.2,14.9c-0.3,0.7-0.8,1.1-1.5,1.4
	c-0.7,0.3-1.4,0.3-2,0c-0.7-0.3-1.2-0.7-1.5-1.5c-0.3-0.7-0.3-1.4,0-2.1c1.5-3.4,3.9-8.5,7.3-15.3l0.2-0.3c2.5-4.8,4.5-8.9,6.1-12.4
	c0.3-0.7,0.9-1.1,1.6-1.4c0.7-0.3,1.4-0.3,2,0c0.7,0.3,1.1,0.9,1.5,1.6S409.8,212.7,409.5,213.3L409.5,213.3z M424,264.9
	c0.1,0.8-0.1,1.4-0.6,2c-0.4,0.6-1,0.9-1.8,1c-1.4,0.2-3,0.9-4.9,1.8c-1.5,0.7-2.8,1.3-3.7,1.9c-0.3,0.3-0.8,0.5-1.2,0.7l-0.5,0.3
	c-0.3,0.2-0.4,0.3-0.5,0.3c-0.6,0.4-1.3,0.8-2.2,1.3c-1.5,0.8-2.8,0.4-3.7-1.2c-0.3-0.7-0.4-1.4-0.2-2.2c-0.3-0.2-0.6-0.4-0.9-0.5
	c-0.7-0.6-1.3-1.5-1.7-2.8c-0.3-0.9-0.6-2.8-0.8-5.5l0.1-0.1l0-0.2c-0.1-2.2-0.3-3.5-0.4-3.9c-0.2-0.7-0.1-1.4,0.3-2
	c0.4-0.6,1-1,1.7-1.3c0.4-0.1,1-0.1,1.7,0.2c3.4-2.3,6.6-3.6,9.6-4c3.2-0.5,6,0,8.4,1.5c2.4,1.6,3.6,3.8,3.6,6.6
	C426.4,261,425.6,263,424,264.9L424,264.9z M418.5,263.2c0.2-0.5,0.5-0.9,0.7-1.1c1.2-1.1,1.8-2.2,1.7-3.3c0.1-0.8-0.3-1.5-1.1-2.1
	c-1-0.7-2.5-0.9-4.5-0.6c-2.4,0.3-5.2,1.5-8.4,3.8c0,0.2,0,0.7,0,1.6l0.1,0.3c0.1,2.2,0.3,3.5,0.4,4c1.1,0,1.9,0.6,2.4,1.5
	c0.1,0,0.3-0.1,0.6-0.3c0.5-0.3,1.2-0.7,2.1-1.1c0.8-0.4,1.5-0.8,1.9-1C415.3,264.3,416.7,263.8,418.5,263.2L418.5,263.2z"/>
<path class="st0" d="M489.7,209.8c0.1,2.5,0.1,5.3-0.1,8.4c0,2.5-0.1,3.9-0.1,4.3c-0.1,2.3-0.1,3.9-0.1,4.5
	c-0.1,2.4-0.2,6.7-0.3,13.1c4.5-2.1,8.9-3.9,13.1-5.5c4.6-1.5,9.2-2.6,14-3.4c0.9-0.2,1.7-0.2,2.5-0.2c0.5,0,1,0.1,1.5,0.4
	c0.8,0.4,1.4,1,1.7,2c0.1,0.7,0.1,1.4-0.2,2.1c-0.2,0.5-0.4,0.8-0.6,1c-0.1,0.2-0.6,0.7-1.3,1.6c-0.5,0.5-1.2,0.8-2,0.8
	s-1.5-0.2-2-0.7c-0.4-0.5-0.6-0.9-0.7-1.2c-3.8,0.6-7.5,1.6-11.2,2.9c-3.8,1.3-8.1,3.1-12.8,5.3c-0.8,0.3-1.4,0.3-1.9,0.1
	c0.3,11.9,2,21.4,5,28.3c0.5-0.2,1.2-0.4,2.2-0.7c1-0.3,1.8-0.6,2.6-0.8c0.8-0.3,1.5-0.5,2.3-0.7c8-2.6,15.4-4.3,22.1-5.2
	c7.8-0.9,13.6-0.5,17.3,1.3c1.6,0.8,2,2,1.3,3.7c-0.3,0.7-0.9,1.1-1.6,1.4c-0.8,0.2-1.5,0.2-2.1-0.2c-5.5-2.7-17.3-1.3-35.4,4.1
	c-3.5,1.1-5.9,1.9-7.3,2.4c-0.3,0.7-0.7,1.1-1.2,1.2c-0.8,0.4-1.6,0.5-2.5,0.1c-10.9,3.9-19.3,7.5-25.1,10.9
	c-0.7,0.4-1.4,0.5-2.1,0.3c-0.7-0.2-1.2-0.7-1.6-1.4c-0.4-0.6-0.5-1.3-0.3-2c0.2-0.7,0.6-1.3,1.3-1.7c6.1-3.5,14.4-7.1,25-10.9
	c-3.3-7.8-5.1-17.9-5.4-30.2c-0.1-5.3,0-11.4,0.2-18.5l0.2-4.4c0-1.2,0-2.6,0.1-4.3c0-0.8,0-2.2,0.1-4c0-1.9,0-3.2,0-4.1
	c-0.1-0.7,0.2-1.4,0.7-2c0.5-0.6,1.2-0.9,2-0.8c0.7-0.1,1.4,0.2,1.9,0.8C489.4,208.4,489.7,209,489.7,209.8L489.7,209.8z"/>
<path class="st0" d="M596.1,235.9c0-0.3,0.1-2.8,0.1-7.4c0-0.8,0.3-1.5,0.8-2c0.5-0.5,1.1-0.8,1.9-0.8c0.7-0.1,1.4,0.2,1.9,0.8
	c0.5,0.5,0.8,1.2,0.8,2c0.1,1.9,0.1,3.9,0,5.8c7.5-2.2,15.1-3.9,22.8-5.2c0.7-0.1,1.4,0,2,0.5c0.6,0.4,1,1,1.1,1.7s0,1.4-0.4,2
	c-0.4,0.6-1,1-1.7,1.1c-8,1.3-15.9,3.2-23.8,5.6c-0.2,3.2-0.4,5.8-0.5,7.7c1.5-0.6,3.4-1.3,5.6-2.1c0.7-0.3,1.4-0.2,2.1,0.1
	c0.7,0.3,1.1,0.9,1.3,1.6c0.3,0.7,0.2,1.4-0.1,2.1c-0.3,0.7-0.9,1.1-1.6,1.3c-3.1,1.1-5.5,2-7.1,2.7c-0.1,0-0.2,0.1-0.4,0.1
	c-0.2,0.1-0.3,0.2-0.4,0.2c-0.1,0.1-0.1,0.2-0.1,0.3c0,0.2-0.1,0.5-0.1,0.7s-0.1,0.6-0.2,1.1c-0.1,0.5-0.1,1.1-0.2,1.8
	c-0.1,1.1-0.4,4.8-1,11c0,0.8-1.9,14.6-2.4,15.4c-0.4,0.7-1,0.8-1.8,0.8c-0.8-0.1-1.5-0.4-1.7-1.1c-0.3-0.8,0.5-14.8,0.6-15.5
	c0-0.5,0.3-4.2,1-11.1c0.1-0.5,0.1-0.8,0.1-0.9c-0.6,0.3-1.4,0.6-2.3,1c-0.9,0.4-1.6,0.6-2,0.8c-1.9,0.7-3.3,1.1-4.2,1.3
	c-1.8,0.2-3.2,0-4.3-0.4c-1.4-0.6-2.4-1.6-3.1-3.1c-0.5-1-0.8-2.5-1-4.6c0-0.4,0-1,0-1.9c-5.3,2.6-10.4,5.4-15.3,8.6
	c-0.6,0.4-1.3,0.5-2,0.4c-0.7-0.1-1.3-0.5-1.7-1.2c-0.4-0.6-0.5-1.3-0.4-2c0.1-0.7,0.6-1.3,1.2-1.7c6.1-3.9,12.3-7.3,18.4-10.1
	c0-0.6,0.2-1.7,0.3-3.2s0.3-2.8,0.4-3.8c0.1-0.8,0.4-1.4,1-1.8c0.6-0.4,1.3-0.6,2.1-0.5c0.8,0.1,1.4,0.4,1.8,1
	c0.4,0.6,0.6,1.2,0.5,2c0,0.3-0.1,0.9-0.2,1.8c-0.1,0.9-0.2,1.6-0.2,2.1C588.1,238.7,592.2,237.2,596.1,235.9L596.1,235.9z
	 M558.3,215.8c3.2-1.4,7-3,11.3-4.9c0.5-0.3,1.7-0.9,3.4-1.7c1.6-0.8,3.5-1.7,5.5-2.6c2.1-1,3.5-1.6,4.2-2c-0.2-3.3-0.5-6.5-0.8-9.7
	c-1.4,1.5-3.5,3.7-6.1,6.7c-0.5,0.6-1.1,1-1.9,1c-0.7,0.1-1.4-0.1-1.9-0.6c-1.4-1.2-1.5-2.5-0.4-3.9c5.1-6.1,10.7-11.4,16.7-16.2
	c1.5-1.1,2.7-0.9,3.8,0.5c0.5,0.6,0.7,1.3,0.6,2c-0.1,0.7-0.5,1.3-1.1,1.8c-2.4,1.9-4.1,3.4-5.3,4.4c0.3,0.4,0.5,0.8,0.6,1.3
	c0.6,3.7,1,7.1,1.2,10.4l0.2,0c5.8-2.3,11.3-3.9,16.4-4.8c0.7-0.1,1.4,0,2.1,0.5c0.6,0.5,1,1.1,1.1,1.8s0,1.4-0.5,2
	c-0.5,0.6-1.1,1-1.8,1.1c-4.5,0.8-9.6,2.3-15.3,4.5c-0.2,0.1-0.5,0.2-0.9,0.4c-0.4,0.2-0.7,0.3-0.9,0.4c0,0.2,0,0.4,0,0.7
	c0,0.3,0,0.5,0,0.7l0.1,0.3c3.7,0.1,7.4,0.8,11.1,1.9c3.6,1.1,7.8,3.1,12.7,5.8c0.7,0.3,1.1,0.9,1.3,1.6c0.2,0.7,0.1,1.4-0.3,2.1
	c-0.8,1.6-2,1.9-3.7,1.1c-4.3-2.4-8.2-4.2-11.6-5.3c-2.9-0.9-5.9-1.5-9.2-1.6c0,2.7,0.1,4.9,0.3,6.6c0.1,3,0.5,6.2,1.1,9.7
	c0.1,0.8,0,1.5-0.4,2.1c-0.4,0.6-1,1-1.9,1.1c-0.7,0.1-1.4,0-2-0.5c-0.6-0.5-1-1.1-1.1-1.8c-0.4-2.6-0.8-6-1.2-10.2
	c-0.2-2.2-0.3-4.7-0.3-7.3c-0.2,0.4-0.6,1.1-1.1,1.9c-0.5,0.9-0.9,1.6-1.2,2.1l-0.8,1.4c-4,7.4-7.4,13.4-10.2,17.9
	c-0.4,0.7-1,1.1-1.7,1.3c-0.7,0.2-1.4,0-2.1-0.4c-1.5-0.9-1.8-2.2-0.9-3.8c2.2-3.4,5.6-9.2,10.1-17.5c0.4-0.7,0.7-1.2,0.8-1.4
	c0.2-0.3,0.5-0.9,1-1.8c0.5-0.8,0.9-1.5,1.1-1.9c-1.3,0.5-2.3,0.9-3,1.3c-0.7,0.3-1.4,0.7-2.1,1c-0.7,0.3-1.1,0.6-1.4,0.7
	c-5.4,2.5-9.2,4.2-11.6,5.1c-0.7,0.3-1.4,0.3-2.1,0c-0.7-0.3-1.2-0.8-1.4-1.5c-0.3-0.7-0.3-1.4,0-2.1
	C557,216.5,557.6,216,558.3,215.8L558.3,215.8z M595.8,241.9c-3.2,1-7.4,2.6-12.8,4.9c-0.1,1.6-0.1,3,0,4.1c0.1,1.4,0.3,2.2,0.6,2.6
	l0,0.2l0.2,0.2c0.1,0,0.3,0,0.3,0.1c0.4-0.1,0.7-0.1,0.9,0c0.3-0.1,1.4-0.4,3.2-1c0.4-0.1,1.2-0.4,2.2-0.9c1-0.4,1.9-0.8,2.6-1.1
	l2.1-0.9C595.4,247.3,595.6,244.6,595.8,241.9L595.8,241.9z M583.1,210.6v-0.1l-0.1,0C583,210.6,583,210.6,583.1,210.6L583.1,210.6z
	"/>
<path class="st0" d="M683.3,182.8c0.1,0.1,0.3,0.3,0.6,0.7c0.3,0.7,0.3,1.4,0,2.1c-0.3,0.7-0.7,1.2-1.5,1.5
	c-2.7,1.1-5.6,2.2-8.6,3.2c-1.5,0.4-3.2,0.9-5.2,1.4c-3.5,1-6.4,1.8-8.5,2.5c-3.6,1.3-6.3,2.4-8.1,3.4c-0.9,0.6-1.9,0.6-3-0.2
	c-0.1,0.2-0.3,0.3-0.5,0.3c-0.7,0.4-1.4,0.5-2.1,0.3c-0.7-0.2-1.2-0.7-1.6-1.4c-1-1.8-2.3-4.7-4-8.6c0-0.1,0-0.2-0.1-0.3
	c-0.1-0.1-0.1-0.2-0.2-0.4c-0.1-0.1-0.2-0.3-0.3-0.5c-0.6-1.5-1-2.6-1.5-3.3c-0.3-0.7-0.3-1.4,0-2.1c0.3-0.7,0.7-1.2,1.5-1.5
	c1.3-0.6,2.4-0.3,3.3,0.8c4.7-2.8,11.1-5.6,19.1-8.4c5-1.7,9.2-2.9,12.6-3.4c2.2-0.4,4-0.4,5.4-0.1c2,0.3,3.5,1,4.5,2.3
	c0.6,0.7,0.9,1.4,0.9,2.3c0,0.8-0.1,1.4-0.1,1.8c-0.1,0.6-0.4,1.8-1,3.6c-0.2,0.5-0.3,0.9-0.4,1.2c-0.1,0.2-0.3,0.6-0.5,1.2
	C683.6,182,683.4,182.5,683.3,182.8L683.3,182.8z M669.2,240.5c-0.2,0.3-0.8,1.6-1.8,3.7c-0.4,0.5-0.6,1-0.8,1.5
	c-0.4,0.8-0.9,1.8-1.4,2.8c-0.5,1.1-1,2-1.4,2.7c-0.4,0.7-0.7,1.4-1.1,2c-1.4,2.6-2.9,5-4.4,7.2c-0.4,0.6-4.9,6-5.6,6.1
	s-1.4,0-2.1-0.4c-0.6-0.4-1-1-1.1-1.7c-0.1-0.7,3.9-6.4,4.4-7c1.9-2.6,4.5-7.3,7.8-14c0-0.2,0.2-0.4,0.4-0.9
	c0.2-0.4,0.3-0.7,0.3-0.7c0.2-0.4,0.5-1,0.9-1.9c0.4-0.8,0.7-1.4,0.8-1.8c0.3-0.7,0.9-1.1,1.6-1.4c0.7-0.3,1.5-0.2,2.1,0.1
	c0.7,0.3,1.1,0.9,1.4,1.6C669.6,239.1,669.6,239.8,669.2,240.5L669.2,240.5z M684.4,226.5c-0.4,0.2-0.8,0.3-1.1,0.4
	c-1.2,0.4-2,0.7-2.3,0.9c-4.5,1.7-7.9,3-10.2,3.9c-4,1.6-7.4,3.1-10.3,4.7c-0.5,0.5-1.2,0.7-1.9,0.7s-1.4-0.3-1.8-0.8
	c-1.7-1.8-2.9-4.3-3.9-7.6c-0.5-2.1-1-5.2-1.4-9.3c-0.2-2.8-0.3-5.2-0.4-7.1c0-0.1,0-0.5-0.1-1c0-0.5,0-1.1,0-1.8s0-1.1,0-1.2
	c0-1.5-0.1-2.6-0.2-3.4c0-0.8,0.3-1.4,0.7-2c0.5-0.6,1.1-0.9,1.8-0.9c0.6-0.1,1.2,0.1,1.9,0.6c5.4-4.2,10.4-6.8,14.9-8
	c4.9-1.3,9-0.7,12.4,1.8c6.2,4.6,8.1,14.1,5.8,28.3c-0.1,0.8-0.4,1.4-1.1,1.8c-0.6,0.4-1.3,0.6-2.1,0.5
	C684.8,226.7,684.6,226.6,684.4,226.5L684.4,226.5z M649.5,192.8c2.3-1.3,5.3-2.6,9-3.8c1.8-0.7,4.7-1.5,8.7-2.6
	c0.9-0.2,1.8-0.5,2.9-0.8c1-0.3,1.8-0.5,2.2-0.6c1.4-0.4,3.2-1,5.2-1.8c0-0.1,0-0.3,0.1-0.6c0.2-0.6,0.7-2.1,1.5-4.3
	c0-0.1,0-0.3,0.1-0.6c0.1-0.3,0.2-0.4,0.1-0.5c0.2-0.3,0.3-0.7,0.4-1c0.1-0.3,0.2-0.7,0.3-1.1s0.2-0.6,0.2-0.8
	c-0.1-0.1-0.2-0.1-0.3-0.1c-0.1,0-0.2,0-0.3-0.1c-1.2-0.1-2.5,0-3.8,0.2c-2.9,0.4-6.7,1.4-11.6,3.1c-8.5,3-14.6,5.8-18.5,8.3
	c1.4,3.3,2.5,5.7,3.2,7.2l0.2-0.2L649.5,192.8L649.5,192.8z M680.2,212.3l-0.2,0c-1.6,0.3-3.9,0.8-6.7,1.7c-7.6,2.2-12.5,4.2-14.9,6
	c-0.4,0.3-0.8,0.5-1.3,0.6c0,0.2,0.1,0.5,0.1,0.8c0,0.3,0,0.6,0.1,0.8c7.5-4,15.9-6.7,25.1-8.3c0.3-0.1,0.8,0,1.4,0.2
	c0-0.5,0-1.6-0.1-3.2c-0.1,0.1-0.3,0.3-0.5,0.5c-0.4,0.3-0.9,0.5-1.4,0.7C681.1,212.4,680.6,212.5,680.2,212.3L680.2,212.3z
	 M683.4,219.2l-0.2,0c-9,1.5-17.2,4.3-24.8,8.5c0.2,0.9,0.6,1.9,1.1,3c2.3-1.2,5.4-2.6,9.3-4.2c2.2-0.9,5.7-2.2,10.5-3.9l2.2-0.8
	c0.5-0.2,1.1-0.4,1.8-0.6c0-0.2,0-0.5,0-1C683.3,219.8,683.4,219.5,683.4,219.2L683.4,219.2z M683,207.3c-0.8-3.3-2-5.5-3.7-6.7
	c-1.9-1.4-4.5-1.7-7.7-0.9c-3.9,1-8.6,3.6-14,7.8c-0.3,0.3-0.6,0.4-1.2,0.5c-0.1,1.5-0.1,2.8,0.1,3.9c0.1,0.3,0.1,0.6,0.1,0.9
	c0,0.3,0,0.6,0,1c0,0.3,0,0.6,0,0.8c2.9-1.9,8-3.8,15.2-5.9c1.3-0.4,3.7-1,7.2-1.8l2.1-0.3c0.1,0.1,0.2,0.1,0.3,0.1
	c0.3,0,0.6,0.1,0.9,0.3C682.5,207,682.7,207.1,683,207.3L683,207.3z M680.4,234c4.4,0.2,8.1,0.9,11.2,2.1s6.1,3.3,9.2,6.1
	c1.3,1.3,1.3,2.6,0.1,3.8c-1.3,1.3-2.6,1.3-3.8,0.1c-2.5-2.3-5-3.9-7.4-4.9c-2.5-1-5.6-1.6-9.4-1.8c-0.8,0-1.4-0.3-1.9-0.9
	c-0.5-0.6-0.8-1.2-0.7-2c0-0.8,0.3-1.4,0.9-1.9C679,234.2,679.6,234,680.4,234L680.4,234z"/>
<path class="st0" d="M748.6,154.5c1.2,0.7,3.9,2.6,8.3,5.7c5.3,3.8,9,6.4,11.1,7.7c2.7,2,5.6,3.8,8.5,5.6c9.1,5.5,15.6,8,19.5,7.4
	c0.8-0.1,1.5,0,2.1,0.5c0.6,0.5,1,1.1,1.1,1.8s0,1.4-0.5,2c-0.5,0.6-1.1,1-1.8,1.1c-3,0.5-6.7-0.1-10.9-1.8
	c-3.5-1.4-7.6-3.5-12.3-6.3c-2.7-1.6-5.7-3.5-8.8-5.7c-1.1-0.7-4.9-3.4-11.3-7.9c-0.9-0.7-2-1.4-3.3-2.3c-1.2-0.9-2-1.4-2.4-1.6
	c-3.9,7.5-6.8,13.1-8.5,16.7c-8.6,16.5-23.3,36.1-29.4,44.6c-1.1,1.5-3,2.1-4.5,1c-0.6-0.4-0.5-1.5-0.2-2.1c0.5-1.5,7.2-8.5,7.6-9
	c6.2-8.7,13.4-21,21.6-36.9c5.2-10.2,8.3-16.2,9.2-18.1c0.1-0.3,0.4-0.5,0.8-0.9c0.1-0.1,0.1-0.3,0.3-0.5
	C745.7,153.9,746.9,153.6,748.6,154.5L748.6,154.5z M756.1,204.2c-0.1,0.2-1.4,2.6-3.9,7.2c-0.2,0.4-1.3,2.6-3.3,6.6
	c-2.3,4.6-4.2,8.9-5.5,12.8c9.5-4.8,18.1-9.3,25.6-13.5c0.2,0,0.5-0.2,0.9-0.6c-1.3-1-2.4-1.9-3.2-2.6c-1.4-1.1-1.5-2.4-0.4-3.8
	c1.2-1.4,2.5-1.5,3.9-0.4c0.3,0.3,0.7,0.5,1,0.8c0.3,0.3,0.7,0.6,1.3,1c0.5,0.4,1,0.8,1.4,1.2c0.1,0,0.3,0,0.6,0c0.2,0,0.4,0,0.5,0
	c0.7,0,1.3,0.3,1.7,0.9c0.5,0.5,0.8,1.1,0.8,1.9c2.3,2,4.1,3.5,5.5,4.7c0.1,0.1,0.2,0.2,0.3,0.3l0.1,0.1l0.1,0.1l0.1,0.1l0,0.2
	c0,0.1,0.1,0.1,0.1,0.1l0.2,0.2c0.8,0.9,1.2,1.5,1.4,1.8l0.4,0.3c0.1,0.3,3.5,3.6,4.1,4.1c1.1,0.3,1.8,1.1,2,2.2
	c0.1,0.4,0.1,0.6,0,0.8c-0.1,0.6-0.2,1.1-0.5,1.5c-0.4,0.6-1,1-1.9,1.1c-0.4,0.1-0.9,0-1.3-0.1c-0.5-0.1-4-3.3-4.6-3.8
	c-0.7-0.6-1.4-1.3-1.9-2c-0.2-0.1-0.3-0.3-0.4-0.4c-0.2-0.2-0.4-0.5-0.8-0.9c-0.3-0.4-0.6-0.7-0.7-0.9c-0.2-0.1-0.3-0.3-0.3-0.4
	l-0.3-0.2l-0.2-0.2c-2.1-1.8-3.7-3.2-4.9-4c-1.2,1-2,1.6-2.5,1.9c-15.4,8.4-26.1,13.8-32.1,16.4c-0.1,0-0.2,0.1-0.3,0.1
	c-0.1,0.1-0.3,0.1-0.3,0.1c-1.4,0.2-2.4-0.3-3-1.6l-0.1-0.7c-0.2-1.4,0.3-2.4,1.6-3c0.1,0,0.3-0.1,0.3-0.2c-0.1-0.1-0.1-0.2-0.2-0.3
	c-0.3-0.6-0.4-1.3-0.1-2.1c1.5-4.4,3.7-9.5,6.5-15.3c1.4-2.6,2.5-4.8,3.4-6.6c0.1-0.1,0.4-0.8,1.1-2.1c-1.2,0.8-2.2,1.4-2.9,1.8
	c-3,2-4.9,3.3-5.9,3.9c-3.2,2.1-5.1,3.3-5.8,3.7c-0.6,0.4-1.3,0.5-2,0.3c-0.8-0.2-1.3-0.6-1.7-1.2c-0.9-1.6-0.6-2.8,0.9-3.8
	c0.1,0,0.8-0.5,2.2-1.4s2.5-1.7,3.4-2.3c1.2-0.7,3.2-1.9,5.9-3.8c6.3-4.2,11.6-7.3,15.8-9.6c6.4-3.3,12.2-5.3,17.5-6.2
	c0.7-0.1,1.4,0,2,0.4c0.6,0.4,1,1,1.1,1.7c0.1,0.8,0,1.5-0.4,2.1s-1,1-1.9,1.1c-4.8,0.8-10.1,2.7-15.9,5.7c-2.1,1.1-3.6,2-4.7,2.6
	C756.6,202.9,756.5,203.5,756.1,204.2L756.1,204.2z M737.5,190.3h0.1c0.4-0.2,0.7-0.4,0.7-0.4s0.8-0.4,2.2-1.3
	c2.7-1.5,5-2.8,7.1-3.8c0.7-0.4,1.7-1,3.1-1.7c4.3-2.2,7.8-3.7,10.6-4.5c1.9-0.6,3.4-0.7,4.5-0.4c1.4,0.4,2.1,1.3,2.4,2.6
	c0.2,0.9,0.1,1.8-0.3,2.8c-0.8,1.7-2,2.2-3.6,1.4c-0.7-0.3-1.1-0.7-1.2-1.2l-0.1,0.1c-2.2,0.6-5.4,2-9.7,4.1c-0.6,0.3-1.6,0.8-3,1.5
	c-0.8,0.4-1.9,1.1-3.5,1.9c-1.6,0.8-2.7,1.5-3.5,1.9l-3.1,1.8c-0.7,0.3-1.4,0.4-2.1,0.2s-1.2-0.7-1.6-1.4
	C735.5,192.5,735.9,191.3,737.5,190.3L737.5,190.3z"/>
<path class="st0" d="M820.2,227.5c0,1.1,0.1,1.8-0.7,2.4c-0.6,0.4-0.9,0.3-1.7,0.3c-0.8,0-1.8-0.4-2.4-1c-0.6-0.6-1.4-1.1-1.4-2
	c0-0.7,0.3-1.2,0.7-1.7c0.6-0.9,1.7-2.1,2.7-1.7c1.7,0.7,1.7,0.4,2.3,0.9C820.4,225.4,820.2,226.5,820.2,227.5L820.2,227.5z"/>
</svg>
